<?xml version="1.0" encoding="UTF-8" standalone="no"?>
<!DOCTYPE svg PUBLIC "-//W3C//DTD SVG 1.1//EN" "http://www.w3.org/Graphics/SVG/1.1/DTD/svg11.dtd">
<svg width="0.75em" height="0.75em" viewBox="0 0 540 540" version="1.1" xmlns="http://www.w3.org/2000/svg" xmlns:xlink="http://www.w3.org/1999/xlink" xml:space="preserve" xmlns:serif="http://www.serif.com/" style="fill-rule:evenodd;clip-rule:evenodd;stroke-linejoin:round;stroke-miterlimit:2;">
    <path d="M8.997,313.992C8.813,312.896 8.813,312.896 8.997,313.992C45.191,393.175 125.114,448.249 217.8,448.249C344.436,448.249 447.249,345.436 447.249,218.8C447.249,124.557 390.308,43.508 308.969,8.205C304.601,7.559 300.2,7.02 295.767,6.591L295.729,6.587L295.767,6.591C429.756,19.559 534.65,132.626 534.65,270C534.65,416.064 416.064,534.65 270,534.65C138.922,534.65 29.973,439.15 8.997,313.992Z"/>
    <path d="M8.997,313.992C45.191,393.175 125.114,448.249 217.8,448.249C344.436,448.249 447.249,345.436 447.249,218.8C447.249,124.557 390.308,43.508 308.972,8.206L308.706,8.167L307.65,8.014L307.1,7.936L306.034,7.788L305.49,7.714L304.414,7.573L303.875,7.503L302.788,7.366L302.258,7.301L301.152,7.169L300.639,7.108L299.497,6.98L299.017,6.926L297.788,6.795L297.393,6.754L295.767,6.591C296.303,6.643 296.838,6.696 297.393,6.754L297.428,6.757L297.788,6.795L298.902,6.913L299.017,6.926L299.086,6.933L299.497,6.98L300.465,7.088L300.639,7.108L300.741,7.12L301.152,7.169L302.026,7.272L302.258,7.301L302.392,7.317L302.788,7.366L303.584,7.465L303.875,7.503L304.041,7.524L304.414,7.573L305.139,7.667L305.49,7.714L305.687,7.74L306.034,7.788L306.692,7.878L307.1,7.936L307.33,7.968L307.65,8.014L308.241,8.098L308.706,8.167L308.969,8.205L308.972,8.206C436.585,27.071 534.65,137.174 534.65,270C534.65,416.064 416.064,534.65 270,534.65C138.922,534.65 29.973,439.15 8.997,313.992ZM330.19,15.318C401.765,54.972 450.249,131.269 450.249,218.8C450.249,347.092 346.092,451.249 217.8,451.249C131.856,451.249 56.744,404.508 16.522,335.081C45.48,448.047 148.054,531.65 270,531.65C414.409,531.65 531.65,414.409 531.65,270C531.65,146.299 445.623,42.532 330.19,15.318Z" style="fill:white;"/>
</svg>
