<?xml version="1.0" encoding="UTF-8" standalone="no"?>
<!DOCTYPE svg PUBLIC "-//W3C//DTD SVG 1.1//EN" "http://www.w3.org/Graphics/SVG/1.1/DTD/svg11.dtd">
<svg width="0.75em" height="0.75em" viewBox="0 0 540 540" version="1.1" xmlns="http://www.w3.org/2000/svg" xmlns:xlink="http://www.w3.org/1999/xlink" xml:space="preserve" xmlns:serif="http://www.serif.com/" style="fill-rule:evenodd;clip-rule:evenodd;stroke-linejoin:round;stroke-miterlimit:2;">
    <g id="rect3067" transform="matrix(0.888776,0,0,0.916773,29.6139,8.75234)">
        <path d="M261.938,54.063C260.665,54.078 259.381,54.282 258.156,54.5C239.437,57.83 221.648,66.132 205.156,75.594C196.807,80.384 194.569,82.408 190.5,91.438C181.615,111.156 174.257,135.959 169.094,152.688C166.323,161.664 168.255,163.211 171.094,166.969C201.05,206.618 239.203,249.884 259.313,284.313C261.201,287.546 263.664,293.644 269.771,282.254C270.442,280.67 270.583,281.141 271.226,282.363C277.289,293.605 279.742,287.536 281.625,284.313C301.735,249.884 339.888,206.618 369.844,166.969C372.683,163.211 374.614,161.664 371.844,152.688C366.681,135.959 359.323,111.156 350.438,91.438C346.369,82.408 344.13,80.384 335.781,75.594C319.289,66.132 301.501,57.83 282.781,54.5C280.331,54.064 277.609,53.727 275.313,54.688C273.867,55.292 272.849,56.889 271.34,57.466C270.837,57.659 270.259,57.795 269.738,57.661C268.1,57.238 267.142,55.322 265.625,54.688C264.477,54.207 263.21,54.047 261.938,54.063Z" style="fill-rule:nonzero;"/>
        <path d="M261.938,54.062C260.665,54.078 259.381,54.282 258.156,54.5C239.437,57.83 221.648,66.132 205.156,75.594C196.807,80.384 194.569,82.408 190.5,91.437C181.615,111.156 174.257,135.959 169.094,152.687C166.323,161.664 168.255,163.211 171.094,166.969C201.05,206.618 239.203,249.884 259.313,284.313C261.201,287.546 263.664,293.644 269.771,282.254C270.442,280.67 270.583,281.141 271.226,282.363C277.289,293.605 279.742,287.536 281.625,284.313C301.735,249.884 339.888,206.618 369.844,166.969C372.683,163.211 374.614,161.664 371.844,152.687C366.681,135.959 359.323,111.156 350.438,91.437C346.369,82.408 344.13,80.384 335.781,75.594C319.289,66.132 301.501,57.83 282.781,54.5C280.331,54.064 277.609,53.727 275.313,54.688C273.867,55.292 272.849,56.889 271.34,57.466C270.837,57.659 270.259,57.795 269.738,57.661C268.1,57.238 267.142,55.322 265.625,54.688C264.477,54.207 263.21,54.047 261.938,54.062ZM277.127,285.155C277.579,284.47 278.312,283.344 278.688,282.7C298.85,248.181 337.086,204.789 367.121,165.035C368.237,163.558 369.279,162.575 369.666,161.019C370.066,159.407 369.739,157.283 368.61,153.626C363.478,136.999 356.175,112.345 347.344,92.747C343.66,84.571 341.622,82.747 334.062,78.41C317.911,69.144 300.505,60.98 282.172,57.719C280.361,57.396 278.347,56.983 276.649,57.692C276.089,57.926 275.686,58.461 275.196,58.876C274.395,59.556 273.537,60.144 272.579,60.51C271.42,60.954 270.071,61.133 268.87,60.823C267.684,60.517 266.648,59.852 265.712,59.002C265.223,58.558 264.863,57.932 264.288,57.692C263.583,57.397 262.801,57.327 261.979,57.335C260.897,57.348 259.807,57.533 258.765,57.719C240.433,60.98 223.026,69.144 206.875,78.41C199.315,82.747 197.278,84.571 193.593,92.747C184.762,112.345 177.459,136.999 172.328,153.626C171.199,157.283 170.871,159.407 171.272,161.019C171.658,162.575 172.701,163.558 173.817,165.035C203.852,204.789 242.087,248.181 262.25,282.7C262.626,283.344 263.358,284.467 263.81,285.153C263.945,285.026 264.084,284.884 264.205,284.741C264.963,283.85 265.792,282.571 266.734,280.82C267.59,278.925 268.696,278.374 269.213,278.188C270.192,277.836 271.14,277.885 272.088,278.362C272.574,278.607 273.451,279.389 274.217,280.846C275.166,282.607 276,283.888 276.761,284.775C276.873,284.906 277.002,285.036 277.127,285.155Z" style="fill:white;"/>
    </g>
    <g id="rect3961" transform="matrix(1,0,0,1,0,-17)">
        <path d="M95.319,434.063C86.107,405.052 103.709,387.517 115.447,375.634C131.319,359.566 132.166,358.455 164.91,331.258C165.437,330.82 165.981,328.508 165.859,327.158C165.55,323.743 167.113,322.414 171.667,322.451C180.025,322.518 188.599,320.334 196.949,320.515C205.298,320.696 213.407,323.225 220.94,332.7C222.989,335.278 226.828,339.051 219.801,339.875C202.102,341.951 196.926,345.403 189.698,350.694C167.851,366.687 146.092,382.88 128.202,401.751C121.27,409.063 115.974,414.65 118.503,428.445C119.611,434.486 124.461,461.093 111.7,472.957C104.043,480.074 86.092,486.867 73.915,486.526C60.49,486.149 46.96,478.611 38.688,466.444C29.616,453.102 23.556,433.974 29.881,416.412C32.014,410.489 36.678,394.722 50.987,392.801C62.987,391.189 68.97,392.176 59.035,398.836C52.339,403.325 49.097,408.727 46.128,413.223C37.204,426.737 45.722,445.189 55.163,452.399C74.083,466.849 94.315,459.95 97.845,453.495C100.394,448.836 97.727,441.646 95.319,434.063Z" style="fill-rule:nonzero;"/>
        <path d="M95.319,434.063C86.107,405.052 103.709,387.517 115.447,375.634C131.319,359.566 132.166,358.455 164.91,331.258C165.437,330.82 165.981,328.508 165.859,327.158C165.55,323.743 167.113,322.414 171.667,322.451C180.025,322.518 188.599,320.334 196.949,320.515C205.298,320.696 213.407,323.225 220.94,332.7C222.989,335.278 226.828,339.051 219.801,339.875C202.102,341.951 196.926,345.403 189.698,350.694C167.851,366.687 146.092,382.88 128.202,401.751C121.27,409.063 115.974,414.65 118.503,428.445C119.611,434.486 124.461,461.093 111.7,472.957C104.043,480.074 86.092,486.867 73.915,486.526C60.49,486.149 46.96,478.611 38.688,466.444C29.616,453.102 23.556,433.974 29.881,416.412C32.014,410.489 36.678,394.722 50.987,392.801C62.987,391.189 68.97,392.176 59.035,398.836C52.339,403.325 49.097,408.727 46.128,413.223C37.204,426.737 45.722,445.189 55.163,452.399C74.083,466.849 94.315,459.95 97.845,453.495C100.394,448.836 97.727,441.646 95.319,434.063ZM220.217,336.76C219.715,336.06 219.031,335.12 218.592,334.567C211.772,325.99 204.443,323.678 196.884,323.514C188.547,323.334 179.988,325.518 171.643,325.451C170.441,325.441 169.123,325.76 168.88,325.822C168.865,325.884 168.843,325.985 168.836,326.056C168.811,326.306 168.819,326.583 168.847,326.888C168.966,328.206 168.654,330.184 168.19,331.46C167.81,332.503 167.247,333.216 166.827,333.566C134.229,360.642 133.383,361.746 117.581,377.742C106.429,389.032 89.426,405.594 98.178,433.155C99.685,437.901 101.262,442.506 101.73,446.475C102.11,449.698 101.773,452.566 100.477,454.935C99.179,457.308 96.144,459.872 91.757,461.622C82.72,465.227 67.672,465.727 53.342,454.783C48.202,450.857 43.278,443.894 40.889,436.049C38.441,428.013 38.647,419.108 43.625,411.57C46.775,406.799 50.259,401.108 57.364,396.344C57.942,395.957 58.502,395.532 59.005,395.124C56.976,395.132 54.38,395.372 51.386,395.774C45.207,396.604 41.161,400.497 38.378,404.749C35.311,409.435 33.719,414.609 32.703,417.429C26.718,434.05 32.583,452.13 41.169,464.758C48.883,476.104 61.479,483.175 74,483.527C85.487,483.849 102.434,477.474 109.657,470.759C114.252,466.488 116.194,460.042 116.946,453.558C118.156,443.128 116.194,432.485 115.552,428.986C112.781,413.874 118.43,407.698 126.025,399.687C144.036,380.688 165.932,364.374 187.926,348.273C195.499,342.729 200.907,339.071 219.452,336.895C219.704,336.866 219.969,336.816 220.217,336.76Z" style="fill:white;"/>
    </g>
    <g id="rect39611" serif:id="rect3961" transform="matrix(-1,0,0,1,547.812,-16)">
        <path d="M95.319,434.063C86.107,405.052 103.709,387.517 115.447,375.634C131.319,359.566 132.166,358.455 164.91,331.258C165.437,330.82 165.981,328.508 165.859,327.158C165.55,323.743 167.113,322.414 171.667,322.451C180.025,322.518 188.599,320.334 196.949,320.515C205.298,320.696 213.407,323.225 220.94,332.7C222.989,335.278 226.828,339.051 219.801,339.875C202.102,341.951 196.926,345.403 189.698,350.694C167.851,366.687 146.092,382.88 128.202,401.751C121.27,409.063 115.974,414.65 118.503,428.445C119.611,434.486 124.461,461.093 111.7,472.957C104.043,480.074 86.092,486.867 73.915,486.526C60.49,486.149 46.96,478.611 38.688,466.444C29.616,453.102 23.556,433.974 29.881,416.412C32.014,410.489 36.678,394.722 50.987,392.801C62.987,391.189 68.97,392.176 59.035,398.836C52.339,403.325 49.097,408.727 46.128,413.223C37.204,426.737 45.722,445.189 55.163,452.399C74.083,466.849 94.315,459.95 97.845,453.495C100.394,448.836 97.727,441.646 95.319,434.063Z" style="fill-rule:nonzero;"/>
        <path d="M95.319,434.063C86.107,405.052 103.709,387.517 115.447,375.634C131.319,359.566 132.166,358.455 164.91,331.258C165.437,330.82 165.981,328.508 165.859,327.158C165.55,323.743 167.113,322.414 171.667,322.451C180.025,322.518 188.599,320.334 196.949,320.515C205.298,320.696 213.407,323.225 220.94,332.7C222.989,335.278 226.828,339.051 219.801,339.875C202.102,341.951 196.926,345.403 189.698,350.694C167.851,366.687 146.092,382.88 128.202,401.751C121.27,409.063 115.974,414.65 118.503,428.445C119.611,434.486 124.461,461.093 111.7,472.957C104.043,480.074 86.092,486.867 73.915,486.526C60.49,486.149 46.96,478.611 38.688,466.444C29.616,453.102 23.556,433.974 29.881,416.412C32.014,410.489 36.678,394.722 50.987,392.801C62.987,391.189 68.97,392.176 59.035,398.836C52.339,403.325 49.097,408.727 46.128,413.223C37.204,426.737 45.722,445.189 55.163,452.399C74.083,466.849 94.315,459.95 97.845,453.495C100.394,448.836 97.727,441.646 95.319,434.063ZM168.88,325.822C169.123,325.76 170.441,325.441 171.643,325.451C179.988,325.518 188.547,323.334 196.884,323.514C204.443,323.678 211.772,325.99 218.592,334.567C219.084,335.186 219.684,335.875 220.201,336.575C220.238,336.624 220.276,336.679 220.314,336.738C220.039,336.803 219.738,336.862 219.452,336.895C200.907,339.071 195.499,342.729 187.926,348.273C165.932,364.374 144.036,380.688 126.025,399.687C118.43,407.698 112.781,413.874 115.552,428.986C116.194,432.485 118.156,443.128 116.946,453.558C116.194,460.042 114.252,466.488 109.657,470.759C102.434,477.474 85.487,483.849 74,483.527C61.479,483.175 48.883,476.104 41.169,464.758C32.583,452.13 26.718,434.05 32.703,417.429C33.719,414.609 35.311,409.435 38.378,404.749C41.161,400.497 45.207,396.604 51.386,395.774C54.38,395.372 56.976,395.132 59.005,395.124C58.502,395.532 57.942,395.957 57.364,396.344C50.259,401.108 46.775,406.799 43.625,411.57C38.647,419.108 38.441,428.013 40.889,436.049C43.278,443.894 48.202,450.857 53.342,454.783C67.672,465.727 82.72,465.227 91.757,461.622C96.144,459.872 99.179,457.308 100.477,454.935C101.773,452.566 102.11,449.698 101.73,446.475C101.262,442.506 99.685,437.901 98.178,433.155C89.426,405.594 106.429,389.032 117.581,377.742C133.383,361.746 134.229,360.642 166.827,333.566C167.247,333.216 167.81,332.503 168.19,331.46C168.654,330.184 168.966,328.206 168.847,326.888C168.819,326.583 168.811,326.306 168.836,326.056C168.843,325.985 168.865,325.884 168.88,325.822Z" style="fill:white;"/>
    </g>
    <g id="rect3091-4-1" transform="matrix(1,0,0,1,0,-14)">
        <path d="M180.582,504.963C185.397,508.407 200.785,510.466 219.144,490.42C224.61,481.677 232.777,452.682 237.035,403.573C238.046,355.335 237.321,308.578 171.098,318.769C87.958,330.311 53.868,311.51 30.567,291.893C2.545,268.302 4.332,221.537 15.8,197.978C25.98,177.065 40.51,159.149 57.785,143.575C76.279,126.902 114.515,102.662 129.227,80.528C134.22,73.015 134.417,58.281 126.721,53.575C122.609,51.061 111.857,54.004 106.564,61.054C103.507,65.125 98.539,71.182 99.238,60.94C99.99,49.916 112.354,37.659 120.116,35.202C122.902,34.321 125.896,33.803 128.885,33.722C131.875,33.641 134.869,34.015 137.654,34.899C143.083,36.622 148.702,39.999 151.434,44.996C156.976,55.136 152.592,76.625 148.078,87.262C140.448,105.242 118.779,123.878 89.247,147.16C80.795,153.822 6.288,209.407 44.461,267.218C66.501,300.598 141.411,298.086 163.581,285.895C191.456,270.567 169.833,259.632 164.378,259.816C151.117,260.263 133.311,264.792 124.487,275.14C119.791,280.647 120.211,279.594 116.553,276.203C84.851,246.816 107.169,165.914 134.448,144.034C137.803,141.344 138.661,141.149 138.889,146.426C140.955,194.184 169.345,216.256 172.084,213.77C175.19,210.951 176.33,212.579 175.919,215.971C175.374,220.464 174.924,221.266 170.908,228.309C170.235,229.488 169.854,232.13 171.743,229.22C183.001,211.874 177.356,197.881 173.603,188.374C171.458,182.939 174.015,182.42 176.906,185.906C191.002,202.909 204.891,215.896 217.068,238.824C218.794,242.073 218.879,244.298 214.297,240.304C202.99,230.447 194.199,238.303 197.86,246.226C207.558,267.218 224.618,272.206 230.734,274.848C253.626,284.739 256.144,284.034 266.189,324.767C272.442,350.122 266.063,426.102 258.395,459.861C251.507,490.192 239.314,511.397 229.773,520.56C205.587,543.789 180.401,543.407 161.062,524.704C142.597,506.846 163.625,473.417 171.136,461.55C177.138,452.067 178.396,444.286 176.237,439.47C174.623,435.871 167.144,433.738 162.229,433.549C148.768,433.031 154.508,423.466 164.507,421.705C169.557,420.815 188.163,419.592 193.015,431.309C194.493,434.876 195.946,440.638 196.166,447.328C196.189,448.025 196.209,448.739 196.204,449.454C196.144,457.76 189.229,469.406 185.911,477.879C181.448,489.276 176.669,502.164 180.582,504.963Z" style="fill-rule:nonzero;"/>
        <path d="M180.582,504.963C185.397,508.407 200.785,510.466 219.144,490.42C224.61,481.677 232.777,452.682 237.035,403.573C238.046,355.335 237.321,308.578 171.098,318.769C87.958,330.311 53.868,311.51 30.567,291.893C2.545,268.302 4.332,221.537 15.8,197.978C25.98,177.065 40.51,159.149 57.785,143.575C76.279,126.902 114.515,102.662 129.227,80.528C134.22,73.015 134.417,58.281 126.721,53.575C122.609,51.061 111.857,54.004 106.564,61.054C103.507,65.125 98.539,71.182 99.238,60.94C99.99,49.916 112.354,37.659 120.116,35.202C122.902,34.321 125.896,33.803 128.885,33.722C131.875,33.641 134.869,34.015 137.654,34.899C143.083,36.622 148.702,39.999 151.434,44.996C156.976,55.136 152.592,76.625 148.078,87.262C140.448,105.242 118.779,123.878 89.247,147.16C80.795,153.822 6.288,209.407 44.461,267.218C66.501,300.598 141.411,298.086 163.581,285.895C191.456,270.567 169.833,259.632 164.378,259.816C151.117,260.263 133.311,264.792 124.487,275.14C119.791,280.647 120.211,279.594 116.553,276.203C84.851,246.816 107.169,165.914 134.448,144.034C137.803,141.344 138.661,141.149 138.889,146.426C140.955,194.184 169.345,216.256 172.084,213.77C175.19,210.951 176.33,212.579 175.919,215.971C175.374,220.464 174.924,221.266 170.908,228.309C170.235,229.488 169.854,232.13 171.743,229.22C183.001,211.874 177.356,197.881 173.603,188.374C171.458,182.939 174.015,182.42 176.906,185.906C191.002,202.909 204.891,215.896 217.068,238.824C218.794,242.073 218.879,244.298 214.297,240.304C202.99,230.447 194.199,238.303 197.86,246.226C207.558,267.218 224.618,272.206 230.734,274.848C253.626,284.739 256.144,284.034 266.189,324.767C272.442,350.122 266.063,426.102 258.395,459.861C251.507,490.192 239.314,511.397 229.773,520.56C205.587,543.789 180.401,543.407 161.062,524.704C142.597,506.846 163.625,473.417 171.136,461.55C177.138,452.067 178.396,444.286 176.237,439.47C174.623,435.871 167.144,433.738 162.229,433.549C148.768,433.031 154.508,423.466 164.507,421.705C169.557,420.815 188.163,419.592 193.015,431.309C194.493,434.876 195.946,440.638 196.166,447.328C196.189,448.025 196.209,448.739 196.204,449.454C196.144,457.76 189.229,469.406 185.911,477.879C181.448,489.276 176.669,502.164 180.582,504.963ZM120.13,275.458C120.67,274.903 121.449,274.079 122.204,273.194C131.526,262.261 150.266,257.29 164.277,256.818C166.278,256.75 170.1,257.783 173.49,259.94C177.024,262.188 179.99,265.598 180.456,269.703C181.017,274.661 177.899,281.445 165.027,288.524C151.364,296.037 118.212,300.133 88.977,294.673C69.138,290.967 51.175,282.831 41.957,268.871C22.069,238.751 31.35,209.2 46.888,186.323C62.039,164.015 83.096,148.188 87.389,144.804C116.402,121.932 137.821,103.754 145.316,86.09C147.919,79.956 150.472,70.066 150.951,61.032C151.251,55.39 150.797,50.087 148.801,46.435C146.426,42.09 141.467,39.256 136.747,37.758C134.276,36.974 131.618,36.649 128.966,36.721C126.258,36.794 123.545,37.264 121.021,38.063C117.525,39.169 113.049,42.556 109.306,46.834C105.596,51.075 102.567,56.222 102.231,61.144C102.222,61.276 102.215,61.408 102.21,61.538C102.921,60.765 103.666,59.917 104.165,59.252C107.781,54.436 113.618,51.277 118.734,50.16C122.635,49.308 126.144,49.706 128.286,51.016C132.05,53.317 134.396,57.502 135.314,62.377C136.583,69.114 135.1,77.111 131.725,82.188C116.899,104.495 78.432,129 59.794,145.803C42.806,161.117 28.508,178.726 18.498,199.291C12.958,210.67 9.795,227.66 11.362,244.648C12.914,261.462 19.102,278.319 32.499,289.598C55.405,308.881 88.958,327.144 170.641,315.804C191.41,312.608 205.999,314.927 216.243,320.882C228.416,327.957 234.68,340.203 237.667,355.262C240.511,369.596 240.393,386.523 240.035,403.636L240.024,403.832C235.699,453.713 227.239,483.13 221.688,492.01L221.356,492.446C201.277,514.37 184.103,511.17 178.837,507.403C177.003,506.091 175.94,503.505 176.17,499.844C176.528,494.159 179.869,485.082 183.118,476.785C185.108,471.703 188.393,465.478 190.716,459.518C192.118,455.92 193.183,452.44 193.204,449.433C193.209,448.758 193.189,448.084 193.168,447.427C192.962,441.176 191.624,435.789 190.244,432.457C188.664,428.641 185.207,426.617 181.467,425.481C175.114,423.551 167.821,424.167 165.027,424.659C162.211,425.155 159.791,426.373 158.33,427.826C157.996,428.158 157.719,428.496 157.525,428.842C157.463,428.95 157.411,429.058 157.372,429.167C157.353,429.222 157.271,429.262 157.305,429.308C157.513,429.589 157.91,429.754 158.421,429.935C159.403,430.283 160.7,430.488 162.345,430.551C165.646,430.678 169.98,431.596 173.31,433.175C176.034,434.467 178.087,436.265 178.974,438.243C181.401,443.655 180.417,452.496 173.671,463.154C169.29,470.076 160.126,484.521 157.415,498.739C155.749,507.473 156.53,516.148 163.147,522.547C172.17,531.274 182.527,535.798 193.48,535.359C204.598,534.913 216.239,529.399 227.695,518.397C236.992,509.468 248.757,488.751 255.47,459.197C263.059,425.781 269.465,350.582 263.276,325.485C257.498,302.053 254.588,292.815 248.227,287.212C243.993,283.483 238.31,281.39 229.544,277.602C223.128,274.83 205.311,269.507 195.136,247.484C192.555,241.897 194.58,236.394 199.028,233.965C201.973,232.356 206.311,232.025 211.27,234.584C201.062,217.123 189.764,205.592 178.253,192.155C181.758,201.976 184.471,215.119 174.259,230.853C172.798,233.104 171.406,233.459 170.912,233.517C169.805,233.647 168.941,233.273 168.266,232.564C167.86,232.137 167.431,231.444 167.366,230.437C167.31,229.574 167.702,227.874 168.302,226.822C171.591,221.054 172.314,219.904 172.785,216.758C172.3,216.919 171.733,216.996 171.079,216.941C169.985,216.851 168.22,216.224 166.099,214.791C157.048,208.673 137.66,186.252 135.9,146.721C120.167,159.732 106.411,192.906 104.293,223.493C102.896,243.668 106.505,262.798 118.593,274.003C119.112,274.485 119.689,275.034 120.13,275.458Z" style="fill:white;"/>
    </g>
    <g id="rect3091-4" transform="matrix(1,0,0,1,0,-14)">
        <path d="M281.447,459.527C276.608,431.209 269.241,347.99 275.034,324.501C285.079,283.769 287.597,284.511 310.489,274.621C316.605,271.978 333.665,266.953 343.363,245.96C347.024,238.038 338.233,230.182 326.926,240.038C322.344,244.033 322.391,241.808 324.117,238.558C336.294,215.631 350.221,202.681 364.317,185.679C367.208,182.192 369.727,182.711 367.582,188.146C363.829,197.653 358.184,211.646 369.442,228.992C371.331,231.902 370.95,229.26 370.277,228.081C366.261,221.038 365.849,220.236 365.304,215.744C364.893,212.352 365.995,210.685 369.1,213.504C371.84,215.99 401.355,170.922 400.334,146.198C400.211,143.23 400.574,141.99 401.51,141.947C402.239,141.913 403.356,142.534 404.775,143.769C440.296,174.682 447.208,247.285 415.67,279.937C412.204,283.525 410.466,285.577 407.736,278.874C406.805,276.59 390.106,260.035 376.844,259.588C371.39,259.404 349.729,270.301 377.604,285.629C392.18,293.645 439.621,293.306 459.708,289.651C485.484,284.961 498.702,264.678 502.075,239.419C509.076,186.999 460.153,156.196 452.348,149.009C429.13,127.629 398.29,109.207 387.625,79.351C383.738,68.469 384.247,54.87 389.789,44.731C392.521,39.733 398.14,36.356 403.569,34.633C406.354,33.749 409.348,33.376 412.338,33.456C415.327,33.537 418.321,34.055 421.107,34.937C428.869,37.393 441.233,49.65 441.985,60.674C442.684,70.916 437.678,64.86 434.621,60.788C429.328,53.738 418.576,50.795 414.464,53.31C406.768,58.015 409.202,71.673 411.958,80.262C417.775,98.388 468.29,127.336 483.059,142.252C499.423,158.78 517.872,175.7 525.385,197.712C533.849,222.512 535.144,248.833 521.273,276.997C508.854,302.211 489.587,310.997 471.161,316.194C447.361,322.907 414.052,324.645 370.087,318.541C303.864,308.35 302.071,391.46 303.188,419.307C304.317,447.477 316.61,483.157 328.24,495.742C345.456,514.371 368.916,508.32 376.447,478.829C380.726,462.077 380.452,439.191 382.512,419.807C385.101,395.449 392.925,365.798 406.568,349.555C415.729,338.647 427.712,335.058 438.151,334.712C446.27,334.444 453.464,336.14 457.625,337.863C469.341,342.715 468.08,361.321 467.191,366.372C465.43,376.37 455.903,382.11 455.385,368.649C455.196,363.734 452.943,356.464 449.425,354.68C447.271,353.587 436.811,351.182 426.535,360.526C417.553,368.693 408.059,406.076 406.33,422.636C404.193,443.095 406.496,466.514 401.903,484.25C397.309,501.986 390.946,516.656 378.767,529.052C366.418,541.622 336.483,545.681 312.45,522.295C292.12,502.511 284.84,479.39 281.447,459.527Z" style="fill-rule:nonzero;"/>
        <path d="M281.447,459.527C276.608,431.209 269.241,347.99 275.034,324.501C285.079,283.769 287.597,284.511 310.489,274.621C316.605,271.978 333.665,266.953 343.363,245.96C347.024,238.038 338.233,230.182 326.926,240.038C322.344,244.033 322.391,241.808 324.117,238.558C336.294,215.631 350.221,202.681 364.317,185.679C367.208,182.192 369.727,182.711 367.582,188.146C363.829,197.653 358.184,211.646 369.442,228.992C371.331,231.902 370.95,229.26 370.277,228.081C366.261,221.038 365.849,220.236 365.304,215.744C364.893,212.352 365.995,210.685 369.1,213.504C371.84,215.99 401.355,170.922 400.334,146.198C400.211,143.23 400.574,141.99 401.51,141.947C402.239,141.913 403.356,142.534 404.775,143.769C440.296,174.682 447.208,247.285 415.67,279.937C412.204,283.525 410.466,285.577 407.736,278.874C406.805,276.59 390.106,260.035 376.844,259.588C371.39,259.404 349.729,270.301 377.604,285.629C392.18,293.645 439.621,293.306 459.708,289.651C485.484,284.961 498.702,264.678 502.075,239.419C509.076,186.999 460.153,156.196 452.348,149.009C429.13,127.629 398.29,109.207 387.625,79.351C383.738,68.469 384.247,54.87 389.789,44.731C392.521,39.733 398.14,36.356 403.569,34.633C406.354,33.749 409.348,33.376 412.338,33.456C415.327,33.537 418.321,34.055 421.107,34.937C428.869,37.393 441.233,49.65 441.985,60.674C442.684,70.916 437.678,64.86 434.621,60.788C429.328,53.738 418.576,50.795 414.464,53.31C406.768,58.015 409.202,71.673 411.958,80.262C417.775,98.388 468.29,127.336 483.059,142.252C499.423,158.78 517.872,175.7 525.385,197.712C533.849,222.512 535.144,248.833 521.273,276.997C508.854,302.211 489.587,310.997 471.161,316.194C447.361,322.907 414.052,324.645 370.087,318.541C303.864,308.35 302.071,391.46 303.188,419.307C304.317,447.477 316.61,483.157 328.24,495.742C345.456,514.371 368.916,508.32 376.447,478.829C380.726,462.077 380.452,439.191 382.512,419.807C385.101,395.449 392.925,365.798 406.568,349.555C415.729,338.647 427.712,335.058 438.151,334.712C446.27,334.444 453.464,336.14 457.625,337.863C469.341,342.715 468.08,361.321 467.191,366.372C465.43,376.37 455.903,382.11 455.385,368.649C455.196,363.734 452.943,356.464 449.425,354.68C447.271,353.587 436.811,351.182 426.535,360.526C417.553,368.693 408.059,406.076 406.33,422.636C404.193,443.095 406.496,466.514 401.903,484.25C397.309,501.986 390.946,516.656 378.767,529.052C366.418,541.622 336.483,545.681 312.45,522.295C292.12,502.511 284.84,479.39 281.447,459.527ZM439.014,61.308C439.009,61.166 439.002,61.023 438.992,60.878C438.656,55.956 435.627,50.809 431.917,46.568C428.174,42.29 423.698,38.903 420.202,37.797C417.678,36.998 414.965,36.528 412.257,36.455C409.605,36.384 406.947,36.708 404.476,37.493C399.756,38.991 394.797,41.824 392.421,46.17C387.271,55.591 386.839,68.23 390.45,78.342C395.62,92.814 405.731,104.478 417.312,115.152C429.257,126.162 442.772,136.112 454.38,146.802C458.323,150.432 472.632,160.049 485.091,175.358C497.873,191.063 508.677,212.648 505.049,239.816C501.494,266.43 487.403,287.661 460.245,292.602C445.981,295.198 418.119,296.157 397.613,293.702C388.48,292.609 380.769,290.793 376.158,288.258C363.282,281.178 360.173,274.396 360.743,269.445C361.216,265.347 364.189,261.943 367.73,259.701C371.124,257.551 374.947,256.522 376.946,256.59C385.498,256.878 395.461,263.234 402.215,268.935C406.961,272.942 410.092,276.707 410.514,277.742C410.82,278.493 411.221,279.229 411.527,279.749C412.081,279.248 412.882,278.506 413.512,277.853C428.735,262.093 434.529,236.648 432.38,211.456C430.245,186.418 420.24,161.546 403.346,146.51C403.572,154.708 400.743,164.982 396.586,175.098C390.385,190.188 381.301,204.944 375.833,211.717C374.385,213.51 373.138,214.79 372.229,215.485C371.477,216.06 370.803,216.357 370.289,216.487C369.587,216.664 368.971,216.647 368.431,216.493C368.896,219.667 369.581,220.804 372.883,226.595C373.483,227.646 373.875,229.346 373.819,230.209C373.754,231.217 373.325,231.91 372.919,232.336C372.092,233.205 370.94,233.762 369.298,233.016C368.868,232.821 367.977,232.244 366.926,230.625C356.739,214.93 359.414,201.813 362.905,192.001C351.407,205.406 340.1,216.905 329.901,234.346C334.882,231.757 339.24,232.085 342.195,233.699C346.643,236.128 348.668,241.631 346.087,247.218C335.912,269.24 318.095,274.603 311.679,277.375C302.912,281.162 297.228,283.25 292.993,286.973C286.633,292.565 283.725,301.789 277.947,325.219C272.206,348.497 279.609,430.959 284.404,459.022C287.708,478.358 294.752,500.886 314.542,520.145C337.059,542.057 365.057,538.727 376.627,526.949C388.431,514.935 394.546,500.688 398.998,483.498C403.559,465.889 401.225,442.636 403.346,422.324C404.577,410.538 409.673,388.376 415.754,373.292C418.531,366.405 421.598,360.96 424.517,358.306C436.266,347.623 448.32,350.755 450.783,352.004C452.674,352.964 454.411,355.002 455.689,357.647C457.291,360.96 458.256,365.223 458.383,368.534C458.446,370.18 458.65,371.478 458.998,372.461C459.153,372.901 459.504,373.411 459.599,373.544C459.655,373.531 459.743,373.509 459.799,373.487C460.034,373.393 460.266,373.245 460.499,373.066C461.265,372.477 461.982,371.579 462.6,370.489C463.345,369.175 463.93,367.59 464.236,365.851C464.728,363.057 465.358,355.762 463.438,349.407C462.309,345.669 460.29,342.214 456.477,340.635C452.583,339.022 445.848,337.459 438.25,337.711C428.542,338.032 417.385,341.341 408.865,351.484C395.543,367.345 388.024,396.339 385.495,420.124C383.42,439.649 383.663,462.697 379.354,479.571C375.263,495.59 366.623,505.069 356.891,508.187C346.951,511.373 335.588,508.114 326.037,497.778C314.107,484.869 301.348,448.322 300.19,419.427C299.622,405.251 299.832,377.012 308.575,353.61C314.001,339.086 322.707,326.438 336.265,319.744C345.32,315.273 356.569,313.425 370.5,315.57C413.93,321.599 446.836,319.938 470.347,313.307C488.066,308.309 506.639,299.918 518.581,275.671C532.051,248.323 530.765,222.763 522.545,198.681C515.176,177.091 496.978,160.574 480.927,144.362C472.118,135.466 450.5,121.569 433.379,107.966C421.322,98.386 411.545,88.792 409.102,81.179C407.331,75.66 405.739,68.18 406.485,61.997C407.067,57.175 409.043,53.108 412.899,50.75C415.041,49.44 418.55,49.042 422.451,49.895C427.567,51.012 433.404,54.171 437.02,58.987C437.527,59.662 438.29,60.525 439.014,61.308Z" style="fill:white;"/>
    </g>
</svg>
